<svg version="1.1" xmlns="http://www.w3.org/2000/svg" viewBox="0 0 425.5186765570194 257" width="425.5186765570194" height="257">
  <!-- svg-source:excalidraw -->
  
  <defs>
    <style class="style-fonts">
      @font-face {
        font-family: "Virgil";
        src: url("https://excalidraw.com/Virgil.woff2");
      }
      @font-face {
        font-family: "Cascadia";
        src: url("https://excalidraw.com/Cascadia.woff2");
      }
    </style>
  </defs>
  <rect x="0" y="0" width="425.5186765570194" height="257" fill="#ffffff"></rect><g stroke-linecap="round" transform="translate(10.518676557019376 47) rotate(0 37 52)"><path d="M18.5 0 M18.5 0 C30.46 1.62, 40.08 1.11, 55.5 0 M18.5 0 C32.21 -0.49, 45 -0.63, 55.5 0 M55.5 0 C66.55 1.06, 72.2 7.37, 74 18.5 M55.5 0 C68.63 1.05, 72.61 5.14, 74 18.5 M74 18.5 C73.39 43.22, 72.76 65.08, 74 85.5 M74 18.5 C73.89 38.9, 74.04 59.81, 74 85.5 M74 85.5 C75.28 96.79, 66.75 105.17, 55.5 104 M74 85.5 C73.84 98.42, 66.3 103.78, 55.5 104 M55.5 104 C45 102.99, 32.45 104.2, 18.5 104 M55.5 104 C45.61 104.73, 34.83 104.7, 18.5 104 M18.5 104 C5.47 105.31, 0.45 97.14, 0 85.5 M18.5 104 C6.49 104.26, 1.41 97.65, 0 85.5 M0 85.5 C1 66.63, -0.63 49.87, 0 18.5 M0 85.5 C-0.59 67.74, 0.06 49.09, 0 18.5 M0 18.5 C0 4.47, 6.46 0.63, 18.5 0 M0 18.5 C1.16 7.97, 6.65 1.06, 18.5 0" stroke="#000000" stroke-width="1" fill="none"></path></g><g transform="translate(17.518676557019376 51.5) rotate(0 28.975000381469727 10)"><text x="0" y="0" font-family="Virgil, Segoe UI Emoji" font-size="16px" fill="#000000" text-anchor="start" style="white-space: pre;" direction="ltr" dominant-baseline="text-before-edge">browser</text></g><g stroke-linecap="round"><g transform="translate(10.518676557019376 75) rotate(0 37.982804640233496 -0.804756870176476)"><path d="M-0.52 -0.24 C11.93 -0.43, 61.46 -1.31, 74.19 -1.14 M1.41 -1.41 C14.29 -1.5, 64.13 -0.25, 76.48 -0.2" stroke="#000000" stroke-width="1" fill="none"></path></g></g><mask></mask><g stroke-linecap="round" transform="translate(228.51867655701938 10) rotate(0 93.5 118.5)"><path d="M32 0 M32 0 C78.09 -0.57, 127.37 1.06, 155 0 M32 0 C71.05 -0.24, 109.99 1.47, 155 0 M155 0 C175.44 1.79, 186.34 8.74, 187 32 M155 0 C176.88 -0.2, 188.35 10.59, 187 32 M187 32 C184.51 95.65, 183.81 156.71, 187 205 M187 32 C184.5 97.75, 185.71 162.14, 187 205 M187 205 C186.82 226.91, 175.91 237.21, 155 237 M187 205 C188.31 225.04, 176.64 235.91, 155 237 M155 237 C125.77 237.27, 93.83 235.67, 32 237 M155 237 C111.72 236.03, 68.72 236.67, 32 237 M32 237 C11.24 236.58, 1.61 227.51, 0 205 M32 237 C11.4 235.07, 1.8 227.46, 0 205 M0 205 C-0.67 137.46, 1.36 71.7, 0 32 M0 205 C0.69 164.95, -0.74 123.36, 0 32 M0 32 C-1.66 11.58, 11.58 -0.01, 32 0 M0 32 C0.73 12.24, 9.09 -1.75, 32 0" stroke="#000000" stroke-width="1" fill="none"></path></g><g transform="translate(318.5186765570194 17) rotate(0 9.649999618530273 10)"><text x="0" y="0" font-family="Virgil, Segoe UI Emoji" font-size="16px" fill="#000000" text-anchor="start" style="white-space: pre;" direction="ltr" dominant-baseline="text-before-edge">PI</text></g><g stroke-linecap="round"><g transform="translate(86.89867655701943 74.01418131907508) rotate(0 71.14955821529756 -0.7904054809661716)"><path d="M-1.01 0.05 C22.82 0.09, 119.25 0.24, 143.31 -0.17 M0.65 -0.98 C24.36 -1.2, 119 -1.58, 142.72 -1.69" stroke="#000000" stroke-width="1" fill="none"></path></g><g transform="translate(86.89867655701943 74.01418131907508) rotate(0 71.14955821529756 -0.7904054809661716)"><path d="M142.39 -0.71 L127.85 6.54 L130.06 -9.14 L142.52 -0.05" stroke="none" stroke-width="0" fill="#000000" fill-rule="evenodd"></path><path d="M142.78 -0.85 C139.7 1.16, 132.48 2.4, 128.77 4.81 M142.9 -1.42 C138.15 0.93, 132.69 2.34, 128.78 4.78 M129.81 4.69 C130.06 0.65, 129.59 -5.1, 129.8 -7.99 M129.12 4.89 C129.41 0.03, 129.37 -3.67, 128.76 -7.76 M129.94 -7.49 C132.34 -7.42, 135.3 -4.78, 141.49 -2.19 M129.18 -8.37 C134.64 -5.91, 139.65 -3.67, 143.07 -1.9 M142.72 -1.69 C142.72 -1.69, 142.72 -1.69, 142.72 -1.69 M142.72 -1.69 C142.72 -1.69, 142.72 -1.69, 142.72 -1.69" stroke="#000000" stroke-width="1" fill="none"></path></g></g><mask></mask><g transform="translate(115.51867655701938 48) rotate(0 38.912498474121094 10)"><text x="0" y="0" font-family="Virgil, Segoe UI Emoji" font-size="16px" fill="#000000" text-anchor="start" style="white-space: pre;" direction="ltr" dominant-baseline="text-before-edge">websocket</text></g><g stroke-linecap="round" transform="translate(229.51867655701938 38) rotate(0 34.5 35)"><path d="M17.25 0 M17.25 0 C32.88 0.96, 43.67 0.08, 51.75 0 M17.25 0 C26.03 -0.26, 34.46 -0.66, 51.75 0 M51.75 0 C62.84 0.75, 69.62 6.52, 69 17.25 M51.75 0 C61.11 -0.09, 68.3 4.31, 69 17.25 M69 17.25 C68.53 28.09, 66.71 38.59, 69 52.75 M69 17.25 C68.13 30.39, 68.46 40.69, 69 52.75 M69 52.75 C67.34 64.6, 63.43 71.83, 51.75 70 M69 52.75 C67.03 64.98, 62.27 71.05, 51.75 70 M51.75 70 C40.05 69.27, 28.21 68.28, 17.25 70 M51.75 70 C45.58 70.51, 37.02 69.74, 17.25 70 M17.25 70 C6.46 71.04, 0.96 65.74, 0 52.75 M17.25 70 C6.62 70.28, 2.04 64.38, 0 52.75 M0 52.75 C-1.77 43.57, -1.09 33.28, 0 17.25 M0 52.75 C0.11 44.75, 0.08 37.45, 0 17.25 M0 17.25 C-1.41 7.45, 5.68 -0.35, 17.25 0 M0 17.25 C1.04 5.01, 6.12 -0.76, 17.25 0" stroke="#000000" stroke-width="1" fill="none"></path></g><g transform="translate(237.75617579407992 63) rotate(0 26.262500762939453 10)"><text x="26.262500762939453" y="0" font-family="Virgil, Segoe UI Emoji" font-size="16px" fill="#000000" text-anchor="middle" style="white-space: pre;" direction="ltr" dominant-baseline="text-before-edge">node.js</text></g><g stroke-linecap="round" transform="translate(228.51867655701938 134) rotate(0 33.5 30)"><path d="M15 0 M15 0 C25.25 1.07, 37.92 1.17, 52 0 M15 0 C23.06 0.6, 33.71 0.94, 52 0 M52 0 C61.21 1.35, 66.29 4.1, 67 15 M52 0 C61.22 -1.01, 66.57 3.94, 67 15 M67 15 C68.91 22.79, 65.68 27.78, 67 45 M67 15 C65.93 24.01, 66.29 35.01, 67 45 M67 45 C65.6 53.72, 62.72 59.11, 52 60 M67 45 C67.59 53.57, 61.53 62.13, 52 60 M52 60 C42.89 59.85, 32.03 60.11, 15 60 M52 60 C42.89 60.08, 32.33 60.26, 15 60 M15 60 C6.94 59.96, 0.44 53.68, 0 45 M15 60 C3.28 58.55, 1.15 54.89, 0 45 M0 45 C-1.22 34.92, 0.74 24.07, 0 15 M0 45 C0.89 34.12, -0.75 22.06, 0 15 M0 15 C0.94 6.08, 5.78 -1.73, 15 0 M0 15 C1.82 6.91, 4.33 1.93, 15 0" stroke="#000000" stroke-width="1" fill="none"></path></g><g transform="translate(248.45617655701938 154) rotate(0 13.5625 10)"><text x="13.5625" y="0" font-family="Virgil, Segoe UI Emoji" font-size="16px" fill="#000000" text-anchor="middle" style="white-space: pre;" direction="ltr" dominant-baseline="text-before-edge">mpd</text></g><g stroke-linecap="round"><g transform="translate(260.5186765570194 106) rotate(0 -0.1710684516280594 14.47650976464152)"><path d="M-0.11 -0.53 C-0.22 4.12, -1.02 23.33, -0.94 28.31 M-1.63 1.81 C-1.35 6.56, 1.03 25.25, 1.28 29.48" stroke="#000000" stroke-width="1" fill="none"></path></g><g transform="translate(260.5186765570194 106) rotate(0 -0.1710684516280594 14.47650976464152)"><path d="M2.15 30.03 L-7.11 17.11 L6.06 14.13 L2.49 30.63" stroke="none" stroke-width="0" fill="#000000" fill-rule="evenodd"></path><path d="M0.65 28.35 C-1.65 26.52, -2.43 21.49, -5.42 18.42 M0.74 29.02 C-0.58 25.68, -2.92 21.87, -6.34 16.55 M-5.2 16.41 C-1.92 17.63, 1.46 15.26, 5.47 16.38 M-5.62 17.52 C-1.97 17.2, 2.52 16.76, 5.49 16.19 M6.29 16.96 C5.89 18.86, 3.05 23.57, 0.5 29.9 M5.45 16.17 C4.57 20.77, 1.89 26.81, 1.71 28.93 M1.28 29.48 C1.28 29.48, 1.28 29.48, 1.28 29.48 M1.28 29.48 C1.28 29.48, 1.28 29.48, 1.28 29.48" stroke="#000000" stroke-width="1" fill="none"></path></g></g><mask></mask><g transform="translate(275.5186765570194 110) rotate(0 12.487500190734863 10)"><text x="0" y="0" font-family="Virgil, Segoe UI Emoji" font-size="16px" fill="#000000" text-anchor="start" style="white-space: pre;" direction="ltr" dominant-baseline="text-before-edge">tcp</text></g></svg>